<svg xmlns="http://www.w3.org/2000/svg" viewBox="0 0 512 512">
  <!-- 背景圆形 - 透明背景 -->
  <circle cx="256" cy="256" r="256" fill="none"/>
  
  <!-- 城堡主体 - 白色线条 -->
  <g stroke="#FFFFFF" stroke-width="6" fill="none">
    <!-- 中央主塔 -->
    <path d="M256,100 L220,180 L180,180 L180,320 L332,320 L332,180 L292,180 Z"/>
    
    <!-- 中央尖顶 -->
    <path d="M256,40 L240,100 L272,100 Z"/>
    
    <!-- 左侧塔 -->
    <path d="M140,140 L110,220 L110,320 L180,320 L180,220 Z"/>
    
    <!-- 左侧尖顶 -->
    <path d="M140,80 L126,140 L154,140 Z"/>
    
    <!-- 右侧塔 -->
    <path d="M372,140 L342,220 L342,320 L332,320 L332,220 Z"/>
    
    <!-- 右侧尖顶 -->
    <path d="M372,80 L358,140 L386,140 Z"/>
    
    <!-- 左侧副塔 -->
    <path d="M80,200 L60,260 L60,320 L110,320 L110,260 Z"/>
    
    <!-- 左侧副尖顶 -->
    <path d="M80,160 L70,200 L90,200 Z"/>
    
    <!-- 右侧副塔 -->
    <path d="M432,200 L412,260 L412,320 L342,320 L342,260 L352,260 L352,320 L412,320 L412,260 L432,260 Z"/>
    
    <!-- 右侧副尖顶 -->
    <path d="M432,160 L422,200 L442,200 Z"/>
    
    <!-- 城堡门 -->
    <rect x="220" y="320" width="72" height="80"/>
    
    <!-- 城堡门细节 -->
    <rect x="240" y="360" width="32" height="40"/>
    
    <!-- 底部城墙 -->
    <path d="M60,320 L412,320" stroke-width="8"/>
    
    <!-- 装饰线条 - 增加迪士尼风格 -->
    <path d="M256,320 L256,300 M180,280 L332,280 M110,280 L180,280 M332,280 L342,280 M140,140 L140,180 M372,140 L372,180"/>
  </g>
</svg>