<svg xmlns="http://www.w3.org/2000/svg" viewBox="0 0 512 512">
  <!-- 背景圆形 -->
  <circle cx="256" cy="256" r="256" fill="#1A1A1A"/>
  
  <!-- 米奇头部轮廓 -->
  <path d="M256,120 C192,120 144,168 144,232 C144,336 256,448 256,448 C256,448 368,336 368,232 C368,168 320,120 256,120 Z" 
        fill="#0066CC"/>
  
  <!-- 左耳 -->
  <circle cx="160" cy="160" r="80" fill="#0066CC"/>
  
  <!-- 右耳 -->
  <circle cx="352" cy="160" r="80" fill="#0066CC"/>
  
  <!-- 米奇标志性鼻子 -->
  <path d="M232,232 L280,232 L280,304 L304,320 L304,360 L208,360 L208,320 L232,304 Z" 
        fill="#FF0000"/>
  
  <!-- 迪士尼风格星星点缀 -->
  <path d="M256,80 L264,112 L296,112 L272,132 L280,164 L256,148 L232,164 L240,132 L216,112 L248,112 Z" 
        fill="#FFCC00"/>
</svg>