<svg xmlns="http://www.w3.org/2000/svg"  viewBox="0 0 64 64" width="50px" height="50px"><circle cx="32" cy="32" r="28" fill="#85cbf8"/><circle cx="32" cy="32" r="21" fill="#7bbeeb"/><path fill="#8d6c9f" d="M23.084,53.115c-0.136,0-0.273-0.027-0.405-0.086c-0.505-0.225-0.731-0.815-0.508-1.32l0.813-1.827 c0.225-0.505,0.815-0.731,1.32-0.508c0.505,0.225,0.731,0.815,0.508,1.32l-0.813,1.827C23.833,52.895,23.468,53.115,23.084,53.115 z"/><path fill="#8d6c9f" d="M28.104,54.651c-0.059,0-0.117-0.005-0.177-0.016c-0.544-0.098-0.906-0.617-0.809-1.16l0.353-1.969 c0.098-0.545,0.615-0.906,1.16-0.809c0.544,0.098,0.906,0.617,0.809,1.16l-0.353,1.969C29,54.312,28.579,54.651,28.104,54.651z"/><path fill="#8d6c9f" d="M33.336,54.955c-0.525,0-0.966-0.409-0.997-0.94l-0.119-1.996 c-0.033-0.552,0.387-1.024,0.938-1.058c0.542-0.015,1.025,0.386,1.058,0.938l0.119,1.996c0.033,0.552-0.387,1.024-0.938,1.058 C33.376,54.954,33.356,54.955,33.336,54.955z"/><path fill="#8d6c9f" d="M38.499,54.019c-0.428,0-0.822-0.275-0.955-0.704l-0.591-1.91 c-0.163-0.528,0.132-1.088,0.659-1.251c0.531-0.161,1.088,0.133,1.251,0.659l0.591,1.91c0.163,0.528-0.132,1.088-0.659,1.251 C38.696,54.004,38.597,54.019,38.499,54.019z"/><path fill="#8d6c9f" d="M43.29,51.879c-0.34,0-0.671-0.173-0.858-0.485l-1.029-1.715c-0.284-0.474-0.131-1.088,0.343-1.372 c0.475-0.285,1.088-0.131,1.372,0.343l1.029,1.715c0.284,0.474,0.131,1.088-0.343,1.372C43.643,51.833,43.465,51.879,43.29,51.879 z"/><g><path fill="#8d6c9f" d="M23.898,14.712c-0.384,0-0.749-0.221-0.915-0.594l-0.813-1.827 c-0.224-0.505,0.003-1.096,0.508-1.32c0.506-0.225,1.096,0.003,1.32,0.508l0.813,1.827c0.224,0.505-0.003,1.096-0.508,1.32 C24.172,14.685,24.034,14.712,23.898,14.712z"/><path fill="#8d6c9f" d="M28.454,13.317c-0.476,0-0.896-0.34-0.983-0.824l-0.353-1.969c-0.098-0.543,0.265-1.063,0.809-1.16 c0.546-0.098,1.063,0.265,1.16,0.809l0.353,1.969c0.098,0.543-0.265,1.063-0.809,1.16C28.571,13.313,28.513,13.317,28.454,13.317z"/><path fill="#8d6c9f" d="M33.219,13.041c-0.021,0-0.04-0.001-0.061-0.002c-0.552-0.033-0.972-0.506-0.938-1.058l0.119-1.996 c0.032-0.552,0.515-0.972,1.058-0.938c0.552,0.033,0.972,0.506,0.938,1.058l-0.119,1.996 C34.185,12.632,33.744,13.041,33.219,13.041z"/><path fill="#8d6c9f" d="M37.908,13.892c-0.098,0-0.197-0.015-0.296-0.045c-0.527-0.163-0.822-0.723-0.659-1.251l0.591-1.91 c0.163-0.526,0.721-0.821,1.251-0.659c0.527,0.163,0.822,0.723,0.659,1.251l-0.591,1.91C38.73,13.616,38.335,13.892,37.908,13.892 z"/><path fill="#8d6c9f" d="M42.259,15.836c-0.175,0-0.353-0.046-0.514-0.143c-0.474-0.284-0.627-0.898-0.343-1.372 l1.029-1.715c0.284-0.474,0.898-0.627,1.372-0.343s0.627,0.898,0.343,1.372l-1.029,1.715 C42.93,15.663,42.599,15.836,42.259,15.836z"/></g><g><path fill="#fff" d="M19.702,29.26c-3.8-1.853-5.131-2.091-8.077-1.9s-2.946,1.663-2.233,1.711 c0.713,0.048,0.902,0.095,0.902,0.095l0.143-0.332l-0.855-0.38c0,0,3.706-0.95,8.314,1.282s5.796,5.131,4.513,6.557 s-3.516,2.138-6.271,1.52c-0.048-1.949,0.048-3.374,0.048-3.374s2.566-0.095,3.231,0.38c0.665,0.475,0.095,0.76-0.332,0.902 c0.618,0.38,1.093,0.523,1.52,0c0.427-0.523,0.902-2.755-4.323-2.613c-0.095-0.902,0.19-1.52-0.57-2.423 c-0.76-0.902-0.76,2.47-0.76,2.47s-1.948,0.285-3.563,1.425s3.325,3.896,3.325,3.896s0.095,1.236,0.807,1.378 c0.712,0.142,0.665-0.902,0.665-0.902s4.275,1.236,7.127-1.282C26.164,35.151,23.503,31.113,19.702,29.26z M14.761,37.479 c0,0-1.616-0.665-2.518-1.473s-0.618-0.95-0.19-1.045s2.091-0.523,2.803-0.523L14.761,37.479z"/><path fill="#fff" d="M25.166,33.394c0,0-0.238,2.755-0.143,4.466c0.048,0.713,1.188,0.855,1.188,0.143 c0-0.713-0.048-3.563-0.143-4.134C25.973,33.298,25.451,32.823,25.166,33.394z"/><path fill="#fff" d="M31.627,33.06c0,0-2.613-0.57-4.371,0.57c-0.855,0.57-0.618,1.616-0.143,1.663 c0.475,0.048,2.898,0.143,3.468,0.523s0.713,0.665,0.095,1.045c-0.618,0.38-1.995,0.57-2.566,0.38 c-0.57-0.19-0.76-1.188,0.285-0.665c1.045,0.523,2.946-0.095,1.663-0.523c-1.282-0.427-2.328-0.332-2.993,0.143 c-0.665,0.475,0.238,1.473,0.998,1.805c0.76,0.332,2.186,0.427,3.041-0.095c0.855-0.523,1.282-2.518-0.095-2.85 c-1.378-0.332-2.233-0.285-2.85-0.38c-0.618-0.095-0.332-0.332,0.665-0.427c0.998-0.095,1.711-0.143,2.566-0.285 C32.244,33.821,32.292,33.203,31.627,33.06z"/><path fill="#fff" d="M35.143,33.773c0.095,0.427,0.475,2.043,0.475,2.709c-0.475-0.713-1.236-2.138-1.9-2.803 c-0.665-0.665-0.855-0.095-0.855-0.095s-0.665,2.423-0.475,3.991c0.19,1.568,0.998,0.475,1.045,0 c0.048-0.475,0.143-2.043,0.143-2.47c0.427,0.95,1.093,2.043,1.616,2.566s1.045,0.19,1.236-0.285 c0.19-0.475,0.807-3.041-0.665-4.75C34.289,30.925,35.048,33.346,35.143,33.773z"/><path fill="#fff" d="M40.226,36.671c-0.523,0.048-2.043,0.285-2.043,0.285l0.332-0.998c0,0,0.998,0.048,1.805-0.048 c0.807-0.095,0.238-0.998-0.048-0.998c-0.285,0-1.33,0-1.33,0l0.238-0.665c0,0,1.757-0.048,2.328-0.143 c0.57-0.095-0.332-1.045-0.998-1.093c-0.665-0.048-2.091,0.143-3.041,0.332c-0.95,0.19,0.618,0.902,0.618,0.902 s-0.143,0.475-0.332,0.807c-0.57,0.095-0.523,0.427-0.332,0.855c-0.38,0.998-0.57,2.233,0.523,2.613 c1.093,0.38,2.375-0.618,2.898-1.045S40.748,36.624,40.226,36.671z"/><path fill="#fff" d="M44.264,33.869c-0.713,0.713-1.948,2.566-1.948,2.566c0.143-1.236,0.475-1.568,1.236-2.803 c0.65-1.055-0.38-0.665-0.38-0.665s-2.423,2.043-1.378,4.371c-0.713,1.757-1.853,4.275-0.19,5.606 c0.427,0.285,0.285-0.57,0.427-1.045c0.143-0.475,0.618-2.898,1.093-3.563c1.141-0.095,3.184-0.523,3.516-3.611 C46.782,32.728,44.977,33.156,44.264,33.869z M45.737,35.437c-0.475,1.282-2.091,1.473-2.091,1.473s1.045-1.711,1.568-2.186 C45.737,34.249,46.212,34.153,45.737,35.437z"/><path fill="#fff" d="M28.064,31.113c0.95-0.95,1.378-2.709-0.285-2.613c0,0-0.618-0.807-1.948-0.427 c-1.33,0.38-2.993,2.138-1.805,3.278c0,0.523,0.143,1.52,0.855,0.618C25.641,32.301,27.114,32.063,28.064,31.113z M24.453,30.59 c-0.143-0.713,0.238-1.378,1.473-1.616C25.926,28.975,24.643,30.02,24.453,30.59z M27.303,29.403c1.33-0.523,0.902,0.76,0.19,1.282 c-0.713,0.523-1.425,0.665-2.28,0.427C25.214,31.113,25.973,29.925,27.303,29.403z"/><path fill="#fff" d="M54.842,34.439h-2.86c-0.059-0.946-0.172-1.954-0.382-2.903c-0.012-0.053-0.056-0.094-0.109-0.098 c-0.313-0.024-0.369-0.007-0.752,0.002c-0.105,0.003-0.178,0.102-0.15,0.202c0.118,0.437,0.233,1.552,0.29,2.796h-2.716 c-0.084,0-0.154,0.069-0.159,0.151l-0.072,0.721c-0.005,0.115,0.093,0.209,0.208,0.197l2.771,0.01 c0.016,1.02-0.014,2.025-0.12,2.737c-0.011,0.072,0.045,0.132,0.117,0.136c0.436,0.026,0.768,0.035,0.933,0.037 c0.067,0.001,0.121-0.049,0.126-0.115c0.025-0.346,0.091-1.434,0.059-2.792l2.813,0.01c0.088,0,0.159-0.071,0.159-0.16v-0.774 C55.002,34.51,54.93,34.439,54.842,34.439z"/></g><path fill="#8d6c9f" d="M32,60C16.561,60,4,47.439,4,32S16.561,4,32,4s28,12.561,28,28S47.439,60,32,60z M32,6	C17.663,6,6,17.663,6,32s11.663,26,26,26s26-11.663,26-26S46.337,6,32,6z"/><path fill="#fff" d="M50.5,30c-0.198,0-0.386-0.119-0.464-0.314C48.94,26.947,42.989,19,34.5,19	c-6.253,0-11.571,2.474-14.591,6.787c-0.158,0.227-0.47,0.281-0.696,0.122c-0.226-0.158-0.281-0.47-0.122-0.696	C22.299,20.629,27.916,18,34.5,18c8.999,0,15.305,8.414,16.464,11.314c0.103,0.256-0.021,0.547-0.278,0.649	C50.625,29.988,50.562,30,50.5,30z"/></svg>