<svg xmlns="http://www.w3.org/2000/svg"  viewBox="0 0 100 100" width="100px" height="100px"><path d="M 31 17 C 23.262963 17 17 23.262963 17 31 L 17 69 C 17 76.737037 23.262963 83 31 83 L 69 83 C 76.737037 83 83 76.737037 83 69 L 83 31 C 83 23.262963 76.737037 17 69 17 L 31 17 z M 31 19 L 69 19 C 75.662963 19 81 24.337037 81 31 L 81 69 C 81 75.662963 75.662963 81 69 81 L 31 81 C 24.337037 81 19 75.662963 19 69 L 19 31 C 19 24.337037 24.337037 19 31 19 z M 33.800781 23 C 27.900781 23 23 27.800781 23 33.800781 L 23 67.199219 C 23 73.099219 27.800781 78 33.800781 78 L 67.199219 78 C 73.099219 78 78.000391 73.099219 77.900391 67.199219 L 77.900391 48.5 C 77.900391 48.2 77.700391 48 77.400391 48 C 77.100391 48 76.900391 48.2 76.900391 48.5 L 76.900391 67.099609 C 76.900391 72.499609 72.499609 76.900391 67.099609 76.900391 L 33.800781 76.900391 C 28.400781 76.900391 24 72.499609 24 67.099609 L 24 33.800781 C 24 28.400781 28.400781 24 33.800781 24 L 67.5 24 C 67.8 24 68 23.8 68 23.5 C 68 23.2 67.8 23 67.5 23 L 33.800781 23 z M 51.125 33.136719 C 44.675 33.099219 38.199609 35.949219 34.599609 41.699219 C 34.899609 41.799219 35.299219 41.899609 35.699219 42.099609 C 43.199219 30.399609 62.8 32.099609 68 45.099609 C 68.2 45.499609 69.299219 45.299609 69.199219 45.099609 C 68.599219 43.899609 68.1 42.900391 67.5 41.900391 C 64 36.100391 57.575 33.174219 51.125 33.136719 z M 77.5 36.599609 C 77.2 36.599609 77 36.799609 77 37.099609 L 77 39.099609 C 77 39.399609 77.2 39.599609 77.5 39.599609 C 77.8 39.599609 78 39.299609 78 39.099609 L 78 37.099609 C 78 36.799609 77.8 36.599609 77.5 36.599609 z M 77.5 40.599609 C 77.2 40.599609 77 40.799609 77 41.099609 L 77 45.099609 C 77 45.399609 77.2 45.599609 77.5 45.599609 C 77.8 45.599609 78 45.299609 78 45.099609 L 78 41.099609 C 78 40.799609 77.8 40.599609 77.5 40.599609 z M 31.412109 43.144531 C 30.799609 43.124219 30.150391 43.149219 29.400391 43.199219 C 26.400391 43.399219 26.399609 44.900391 27.099609 44.900391 C 27.799609 44.900391 28 45 28 45 L 28.099609 44.699219 L 27.199219 44.300781 C 27.199219 44.300781 30.999609 43.299609 35.599609 45.599609 C 40.199609 47.899609 41.499219 50.799219 40.199219 52.199219 C 38.899219 53.599219 36.600391 54.399219 33.900391 53.699219 L 33.900391 50.300781 C 33.900391 50.300781 36.499219 50.199219 37.199219 50.699219 C 37.899219 51.199219 37.300391 51.499609 36.900391 51.599609 C 37.500391 51.999609 38.000391 52.099609 38.400391 51.599609 C 38.800391 51.099609 39.3 48.8 34 49 C 33.9 48.1 34.200391 47.5 33.400391 46.5 C 32.600391 45.6 32.599609 49 32.599609 49 C 32.599609 49 30.6 49.300391 29 50.400391 C 27.4 51.600391 32.400391 54.300781 32.400391 54.300781 C 32.400391 54.300781 32.499219 55.599219 33.199219 55.699219 C 33.899219 55.799219 33.900391 54.800781 33.900391 54.800781 C 33.900391 54.800781 38.199609 56.1 41.099609 53.5 C 44.099609 51.1 41.399609 46.999609 37.599609 45.099609 C 34.749609 43.674609 33.249609 43.205469 31.412109 43.144531 z M 44.603516 43.894531 C 44.350391 43.875781 44.049219 43.9 43.699219 44 C 42.399219 44.4 40.700391 46.200781 41.900391 47.300781 C 41.900391 47.800781 42.000781 48.800391 42.800781 47.900391 C 43.600781 48.200391 45.1 47.9 46 47 C 47 46 47.399219 44.300391 45.699219 44.400391 C 45.699219 44.400391 45.362891 43.950781 44.603516 43.894531 z M 43.900391 44.800781 C 43.900391 44.800781 42.600391 45.900391 42.400391 46.400391 C 42.300391 45.700391 42.600391 45.000781 43.900391 44.800781 z M 45.611328 45.091797 C 46.396094 45.0125 46.012891 46.0625 45.400391 46.5 C 44.700391 47 43.999609 47.200391 43.099609 46.900391 C 43.099609 47.000391 43.899219 45.799219 45.199219 45.199219 C 45.361719 45.136719 45.499219 45.103125 45.611328 45.091797 z M 68.900391 47.300781 C 68.800391 47.300781 68.699219 47.4 68.699219 47.5 C 68.799219 47.9 68.9 49.100781 69 50.300781 L 66.199219 50.300781 C 66.099219 50.300781 66 50.4 66 50.5 L 65.900391 51.199219 C 65.900391 51.299219 65.999609 51.400391 66.099609 51.400391 L 68.900391 51.400391 C 68.900391 52.400391 68.900781 53.399219 68.800781 54.199219 C 68.800781 54.299219 68.800391 54.300781 68.900391 54.300781 L 69.800781 54.300781 C 69.900781 54.300781 69.900391 54.299219 69.900391 54.199219 C 69.900391 53.899219 70 52.700391 70 51.400391 L 72.800781 51.400391 C 72.900781 51.400391 73 51.299219 73 51.199219 L 73 50.400391 C 73.3 50.400391 73.199609 50.300781 73.099609 50.300781 L 70.199219 50.300781 C 70.099219 49.300781 70.000781 48.300391 69.800781 47.400391 C 69.800781 47.300391 69.699219 47.300781 69.699219 47.300781 L 68.900391 47.300781 z M 53.058594 47.900391 C 52.655469 47.881641 53.124219 49.324219 53.199219 49.699219 C 53.299219 50.099219 53.699219 51.800391 53.699219 52.400391 C 53.199219 51.700391 52.400781 50.199609 51.800781 49.599609 C 51.100781 48.899609 50.900391 49.5 50.900391 49.5 C 50.900391 49.5 50.200391 52 50.400391 53.5 C 50.600391 55.1 51.4 54 51.5 53.5 C 51.6 53 51.599609 51.4 51.599609 51 C 51.999609 52 52.699219 53.099609 53.199219 53.599609 C 53.699219 54.099609 54.3 53.800781 54.5 53.300781 C 54.7 52.800781 55.300781 50.2 53.800781 48.5 C 53.425781 48.075 53.192969 47.906641 53.058594 47.900391 z M 48.074219 48.75 C 47.199219 48.75 46.099219 48.9 45.199219 49.5 C 44.299219 50.1 44.599609 51.099219 45.099609 51.199219 C 45.599609 51.299219 47.999609 51.299219 48.599609 51.699219 C 49.199609 52.099219 49.299219 52.400781 48.699219 52.800781 C 48.099219 53.200781 46.699609 53.399219 46.099609 53.199219 C 45.499609 52.999219 45.300391 52 46.400391 52.5 C 47.500391 53 49.399609 52.4 48.099609 52 C 46.799609 51.6 45.699609 51.699609 45.099609 52.099609 C 44.499609 52.499609 45.299609 53.600391 46.099609 53.900391 C 46.899609 54.200391 48.299219 54.300781 49.199219 53.800781 C 50.099219 53.300781 50.499609 51.300391 49.099609 50.900391 C 47.699609 50.600391 46.799219 50.6 46.199219 50.5 C 45.599219 50.4 45.900391 50.199609 46.900391 50.099609 C 47.900391 49.999609 48.6 50.000781 49.5 49.800781 C 50.2 49.700781 50.299609 49.100391 49.599609 48.900391 C 49.599609 48.900391 48.949219 48.75 48.074219 48.75 z M 61.761719 48.837891 C 61.574219 48.800391 61.300781 48.900391 61.300781 48.900391 C 61.300781 48.900391 58.800391 51.000781 59.900391 53.300781 C 59.200391 55.100781 57.999219 57.6 59.699219 59 C 60.099219 59.3 59.999609 58.400391 60.099609 57.900391 C 60.199609 57.400391 60.699219 55.000781 61.199219 54.300781 C 62.399219 54.200781 64.400781 53.799609 64.800781 50.599609 C 65.000781 48.599609 63.100391 49.000781 62.400391 49.800781 C 61.700391 50.500781 60.400391 52.400391 60.400391 52.400391 C 60.500391 51.100391 60.899219 50.799609 61.699219 49.599609 C 62.049219 49.049609 61.949219 48.875391 61.761719 48.837891 z M 58.599609 49 C 57.899609 49 56.5 49.100781 55.5 49.300781 C 54.5 49.500781 56.099609 50.199219 56.099609 50.199219 C 56.099609 50.199219 56.000781 50.6 55.800781 51 C 55.200781 51.1 55.3 51.400391 55.5 51.900391 C 55.1 52.900391 54.9 54.2 56 54.5 C 57.1 54.9 58.400391 53.900391 58.900391 53.400391 C 59.500391 53.000391 58.900781 52.499609 58.300781 52.599609 C 57.800781 52.599609 56.199219 52.900391 56.199219 52.900391 L 56.5 51.900391 L 58.300781 51.900391 C 59.100781 51.900391 58.500781 50.900391 58.300781 50.900391 L 57 50.900391 L 57.199219 50.199219 C 57.199219 50.199219 58.999609 50.199609 59.599609 50.099609 C 60.199609 49.999609 59.299609 49 58.599609 49 z M 43.496094 49.03125 C 43.353711 49.004883 43.212109 49.075781 43.099609 49.300781 C 43.099609 49.300781 42.9 52.100781 43 53.800781 C 43 54.500781 44.199219 54.700391 44.199219 53.900391 C 44.199219 53.200391 44.199609 50.299219 44.099609 49.699219 C 43.974609 49.386719 43.733398 49.075195 43.496094 49.03125 z M 63.910156 50.259766 C 64.134766 50.222656 64.212891 50.488281 63.900391 51.300781 C 63.400391 52.600781 61.800781 52.800781 61.800781 52.800781 C 61.800781 52.800781 62.900391 51.099609 63.400391 50.599609 C 63.587891 50.412109 63.775391 50.282031 63.910156 50.259766 z M 32.599609 50.300781 L 32.5 53.400391 C 32.5 53.400391 30.9 52.700391 30 51.900391 C 29.1 51.100391 29.400781 50.900781 29.800781 50.800781 C 30.200781 50.700781 31.899609 50.300781 32.599609 50.300781 z"/></svg>