<svg xmlns="http://www.w3.org/2000/svg"  viewBox="0 0 32 32" width="96px" height="96px"><path d="M 18.847656 6 C 18.800781 6.015625 18.753906 6.066406 18.714844 6.085938 C 18.472656 6.207031 18.238281 6.359375 18 6.5 L 18 6.617188 C 18.238281 6.738281 18.476563 6.867188 18.71875 6.976563 C 18.8125 7.019531 18.914063 7.03125 18.964844 6.789063 C 19.007813 6.578125 19.011719 6.355469 18.96875 6.152344 C 18.9375 6.015625 18.894531 5.988281 18.847656 6 Z M 18.5 7 C 18.03125 8.105469 17.527344 9.855469 17 10.941406 C 17.171875 10.988281 17.320313 11 17.46875 11 C 18.171875 11 18.875 11.003906 19.578125 11 C 20.058594 10.996094 20.082031 10.96875 19.882813 10.523438 C 19.476563 9.617188 19.042969 8.050781 18.625 7.148438 C 18.601563 7.09375 18.59375 7.027344 18.5 7 Z M 15.003906 10 C 14.980469 10 14.957031 10 14.9375 10 C 6.886719 10.515625 1 17.179688 1 25 L 1 27 L 1.832031 27 C 1.941406 27.019531 2.050781 27.019531 2.15625 27 L 3 27 L 3 25 C 3 18.175781 8.046875 12.445313 15.0625 12 C 15.601563 11.964844 16.015625 11.507813 16 10.972656 C 15.984375 10.433594 15.542969 10.003906 15.003906 10 Z M 21.484375 11.109375 C 21 11.097656 20.582031 11.433594 20.488281 11.90625 C 20.390625 12.378906 20.640625 12.851563 21.089844 13.03125 C 25.738281 15.011719 29 19.617188 29 25 L 29 27 L 29.832031 27 C 29.941406 27.019531 30.050781 27.019531 30.15625 27 L 31 27 L 31 25 C 31 18.808594 27.238281 13.480469 21.871094 11.191406 C 21.75 11.140625 21.617188 11.109375 21.484375 11.109375 Z M 17.644531 12 C 17.457031 12 17.230469 12.179688 17.160156 12.253906 C 17.066406 12.359375 17.023438 12.46875 17.019531 12.582031 C 17.019531 12.664063 17.042969 12.753906 17.078125 12.839844 C 17.152344 13.003906 17.226563 13.144531 17.296875 13.257813 C 17.277344 13.257813 17.25 13.257813 17.230469 13.257813 C 17.09375 13.253906 17.015625 13.300781 17 13.421875 L 17 14.875 C 17 15.03125 15.746094 15.007813 15.582031 15 C 15.40625 15 15.363281 14.9375 15.355469 14.839844 C 15.164063 14.316406 15.289063 14.652344 15.089844 14.203125 C 15.03125 14.070313 14.941406 13.9375 14.796875 13.941406 C 14.65625 13.949219 14.59375 14.105469 14.546875 14.222656 C 14.382813 14.597656 14.070313 15.140625 13.875 15.519531 C 13.871094 15.589844 13.824219 15.65625 13.785156 15.71875 C 13.695313 15.875 13.726563 15.964844 13.90625 15.992188 C 13.9375 15.996094 13.96875 15.996094 14 16 C 14 16.417969 14.011719 16.6875 14.011719 17.320313 C 14.011719 17.894531 13.6875 17.980469 13.382813 18 L 12 18 C 11.878906 18 12.015625 18.480469 11.886719 18.613281 C 11.808594 18.695313 11.488281 18.8125 11.359375 18.734375 C 11.222656 18.652344 11.242188 18.511719 11.289063 18.378906 C 11.300781 18.34375 11.320313 18.308594 11.339844 18.273438 C 11.460938 18.042969 11.445313 18.003906 11.191406 18 L 8.960938 18 C 8.863281 18 8.832031 18.003906 8.867188 18.105469 C 8.957031 18.375 8.996094 18.660156 9 18.941406 C 9.003906 19.238281 8.996094 19.808594 8.996094 20.644531 L 9.003906 20.644531 C 8.992188 20.808594 8.992188 20.96875 8.976563 21.1875 C 8.96875 21.335938 8.796875 21.996094 8.351563 22 C 8.070313 22 7.820313 22 7.578125 22 C 7.6875 21.992188 7.804688 22 7.921875 21.953125 C 7.980469 21.929688 8.015625 21.894531 7.988281 21.75 C 7.882813 21.210938 7.765625 20.679688 7.613281 20.1875 C 7.527344 19.914063 7.34375 19.945313 7.273438 20.242188 C 7.164063 20.707031 7.085938 21.195313 7.007813 21.6875 C 6.988281 21.828125 7 21.90625 7.085938 21.941406 C 7.214844 21.992188 7.347656 21.992188 7.484375 22 C 7.148438 21.996094 6.820313 21.996094 6.398438 22 C 6.304688 22 6.222656 22.019531 6.15625 22.113281 C 5.957031 22.398438 5.738281 22.675781 5.535156 22.960938 C 5.410156 23.136719 5.421875 23.152344 5.640625 23.175781 C 6.277344 23.25 5.738281 23.25 6 23.25 C 5.863281 23.25 5.84375 24.019531 5.84375 24.175781 C 5.851563 24.40625 5.742188 24.832031 5.707031 25.0625 C 5.683594 25.21875 5.582031 25.691406 5.5 26.0625 C 5.464844 26.304688 5.09375 27 5.515625 27 L 13 27 L 13 25 C 13 23.351563 14.351563 22 16 22 C 17.648438 22 19 23.351563 19 25 L 19 27 L 26.457031 27 C 26.765625 27 26.507813 26.300781 26.46875 26.0625 C 26.433594 25.628906 26.121094 24.113281 26.066406 24.082031 C 26.058594 23.703125 25.964844 23.375 26 23.375 C 26.003906 23.375 26.003906 23.363281 26.007813 23.359375 C 26.136719 23.351563 26.261719 23.351563 26.410156 23.335938 C 26.636719 23.3125 26.671875 23.25 26.566406 23.058594 C 26.445313 22.832031 26.28125 22.628906 26.125 22.421875 C 26.011719 22.269531 25.863281 22.1875 25.6875 22.15625 C 25.527344 21.734375 25.359375 21.351563 25.324219 21.265625 C 25.222656 21.039063 25.214844 20.605469 25.140625 20.375 C 25.105469 20.265625 25.035156 20.175781 24.953125 20.09375 C 24.835938 19.984375 24.714844 19.96875 24.589844 20.089844 C 24.515625 20.160156 24.460938 20.234375 24.382813 20.300781 C 24.3125 20.363281 24.230469 20.378906 24.1875 20.28125 C 24.078125 20.0625 23.882813 20 23.671875 20 L 23.121094 20 C 22.570313 20 22.308594 19.191406 22.234375 19.050781 C 22.113281 18.824219 22.464844 18.574219 22.390625 18.328125 C 22.332031 18.136719 22.214844 18.007813 22 18 L 21.789063 18 C 21.890625 17.996094 21.957031 17.960938 21.976563 17.839844 C 22.003906 17.6875 22.015625 17.542969 21.96875 17.398438 C 21.941406 17.292969 21.878906 17.082031 21.878906 17.082031 C 21.878906 17.082031 21.878906 17.078125 21.878906 17.078125 C 21.867188 17.035156 21.550781 16.078125 21.5 16 C 21.484375 16.046875 21.023438 17.296875 21.015625 17.324219 C 20.992188 17.386719 21 17.453125 21.011719 17.519531 C 21.078125 17.960938 21.109375 18 21.503906 18 L 21.023438 18 C 20.398438 18 20.363281 17.097656 20.363281 17.097656 C 20.363281 17.097656 20.378906 16.867188 20.277344 16.515625 C 20.175781 16.164063 19.976563 16.109375 19.976563 15.875 C 19.964844 15.453125 20 13.707031 19.976563 13.421875 C 19.964844 13.289063 19.890625 13.257813 19.761719 13.257813 C 19.882813 13.117188 19.96875 12.859375 19.976563 12.613281 C 19.980469 12.46875 19.96875 12.324219 19.875 12.207031 C 19.835938 12.140625 19.644531 12 19.417969 12 Z M 10.496094 18 C 10.632813 17.996094 10.773438 18.007813 10.914063 17.964844 C 11.015625 17.9375 11.019531 17.9375 10.972656 17.699219 C 10.910156 17.367188 10.839844 17.042969 10.769531 16.714844 C 10.734375 16.53125 10.699219 16.347656 10.644531 16.191406 C 10.546875 15.917969 10.367188 15.9375 10.296875 16.242188 C 10.183594 16.730469 10.089844 17.246094 10.011719 17.777344 C 9.992188 17.902344 10 17.949219 10.058594 17.964844 C 10.203125 18 10.347656 17.996094 10.496094 18 Z M 12.394531 16 C 12.320313 15.996094 12.304688 16.09375 12.289063 16.15625 C 12.179688 16.574219 12.109375 17 12.046875 17.429688 C 11.957031 18.011719 11.957031 18.007813 12.484375 17.996094 C 12.589844 17.996094 12.699219 17.996094 12.800781 17.996094 C 12.984375 18 13.035156 17.921875 12.976563 17.71875 C 12.828125 17.1875 12.675781 16.660156 12.484375 16.152344 C 12.460938 16.09375 12.457031 16.003906 12.394531 16 Z M 23.523438 18 C 23.480469 17.992188 23.46875 18.058594 23.453125 18.105469 C 23.398438 18.289063 23.050781 19.65625 23.003906 19.863281 C 22.988281 19.941406 23.007813 19.96875 23.078125 19.976563 C 23.226563 19.992188 23.371094 20.003906 23.515625 19.996094 C 23.621094 19.996094 23.726563 20.003906 23.832031 19.996094 C 24.015625 19.984375 24.019531 19.980469 23.980469 19.796875 C 23.960938 19.714844 23.945313 19.636719 23.921875 19.5625 C 23.894531 19.464844 23.609375 18.367188 23.566406 18.113281 C 23.558594 18.070313 23.558594 18.007813 23.523438 18 Z"/></svg>